# File created by Blade
# Date/Time:  Tue Jan 27 18:55:50 2015
# Frame Rate: 120.000 fps
#------------------------------------------------------
:FULLY-SPECIFIED
:DEGREES
2810
root -0.577250 32.472422 -6.577848 27.328787 -32.795581 -28.286924
Spine 6.723896 18.041752 1.407280
Head 3.868401 16.904891 7.426117
LeftShoulder -20.035974 22.350915 14.939578
LeftArm -15.215059 -56.513521 -64.873909
LeftForeArm -17.021871 -0.000000 110.025169
LeftHand -13.162937 -0.000000 41.491828
LeftHandThumb1 -26.253704 0.000000 33.147579
RightShoulder 3.525823 15.518201 -4.173159
RightArm 33.279663 -54.978894 71.667810
RightForeArm -29.776559 -0.000000 29.466362
RightHand -14.470626 -0.000000 9.358900
RightHandThumb1 -24.326973 -0.000000 -32.862282
LeftUpLeg -24.173004 21.476530 8.322443
LeftLeg 24.524642 -0.000000 -0.000000
LeftFoot -44.459247 38.384319 -37.393125
LeftToeBase 10.465046 -0.000000 -0.000000
RightUpLeg -74.924661 -60.451482 45.887837
RightLeg 93.874735 -0.000000 -0.000000
RightFoot -21.335751 4.684873 38.129028
RightToeBase 10.499231 -0.000000 -0.000000
2811
root -0.570259 32.463179 -6.576901 27.328129 -33.006719 -28.286455
Spine 6.728915 18.091147 1.332446
Head 3.796349 17.116140 7.318390
LeftShoulder -19.989488 22.383636 14.933254
LeftArm -15.594518 -56.704505 -64.656522
LeftForeArm -17.124138 -0.000000 109.971101
LeftHand -13.099118 -0.000000 41.456638
LeftHandThumb1 -26.253704 0.000000 33.147579
RightShoulder 3.507338 15.642464 -4.243407
RightArm 33.222521 -54.876935 71.930955
RightForeArm -29.813564 -0.000000 29.670417
RightHand -14.577189 -0.000000 9.068525
RightHandThumb1 -24.326973 -0.000000 -32.862282
LeftUpLeg -24.182329 21.525039 8.263348
LeftLeg 24.667516 -0.000000 -0.000000
LeftFoot -44.688587 38.385661 -37.631948
LeftToeBase 10.593148 -0.000000 -0.000000
RightUpLeg -75.321527 -60.367034 46.222991
RightLeg 93.926721 -0.000000 -0.000000
RightFoot -21.193502 4.850880 38.021677
RightToeBase 11.007469 -0.000000 -0.000000
2812
root -0.564720 32.456400 -6.574438 27.327455 -33.209707 -28.304314
Spine 6.747816 18.133581 1.290796
Head 3.722530 17.311974 7.224583
LeftShoulder -19.932804 22.358823 14.901146
LeftArm -16.078598 -56.878045 -64.279272
LeftForeArm -17.277097 -0.000000 109.881462
LeftHand -12.996683 -0.000000 41.632479
LeftHandThumb1 -26.253704 0.000000 33.147579
RightShoulder 3.453759 15.720446 -4.290116
RightArm 33.362492 -54.837368 72.011921
RightForeArm -29.735668 -0.000000 29.806458
RightHand -14.486479 -0.000000 9.167136
RightHandThumb1 -24.326973 -0.000000 -32.862282
LeftUpLeg -24.175494 21.625128 8.214153
LeftLeg 24.801934 -0.000000 -0.000000
LeftFoot -44.812220 38.346768 -37.788411
LeftToeBase 10.561615 -0.000000 -0.000000
RightUpLeg -75.299849 -60.214427 46.152659
RightLeg 93.929843 -0.000000 -0.000000
RightFoot -20.932833 5.100593 38.156264
RightToeBase 10.869270 -0.000000 -0.000000
2813
root -0.558855 32.448682 -6.570968 27.333473 -33.420496 -28.321040
Spine 6.733006 18.186453 1.231621
Head 3.632918 17.534561 7.141978
LeftShoulder -19.849972 22.368808 14.888077
LeftArm -16.546557 -57.077082 -63.917304
LeftForeArm -17.337891 -0.000000 109.790407
LeftHand -12.973329 -0.000000 41.839152
LeftHandThumb1 -26.253704 0.000000 33.147579
RightShoulder 3.407606 15.741741 -4.316224
RightArm 33.557367 -54.821165 71.972771
RightForeArm -29.777741 -0.000000 30.023954
RightHand -14.701027 -0.000000 8.648483
RightHandThumb1 -24.326973 -0.000000 -32.862282
LeftUpLeg -24.150814 21.770912 8.143176
LeftLeg 24.883073 -0.000000 -0.000000
LeftFoot -44.929109 38.313952 -37.887215
LeftToeBase 10.565889 -0.000000 -0.000000
RightUpLeg -74.927344 -59.981272 45.704139
RightLeg 93.884715 -0.000000 -0.000000
RightFoot -20.715999 5.344153 38.237673
RightToeBase 10.894308 -0.000000 -0.000000
2814
root -0.552649 32.442720 -6.567237 27.341988 -33.628757 -28.335268
Spine 6.717697 18.212687 1.166600
Head 3.544122 17.783842 7.111945
LeftShoulder -19.836397 22.388775 14.811261
LeftArm -16.929979 -57.267672 -63.565350
LeftForeArm -17.412948 -0.000000 109.714552
LeftHand -12.981468 -0.000000 41.828251
LeftHandThumb1 -26.253704 0.000000 33.147579
RightShoulder 3.383984 15.761228 -4.319444
RightArm 33.776874 -54.812106 71.910521
RightForeArm -29.632938 -0.000000 30.212542
RightHand -14.788960 -0.000000 8.489892
RightHandThumb1 -24.326973 -0.000000 -32.862282
LeftUpLeg -24.119264 21.965937 8.054390
LeftLeg 24.933123 -0.000000 -0.000000
LeftFoot -44.888536 38.307985 -37.818248
LeftToeBase 10.433481 -0.000000 -0.000000
RightUpLeg -74.267085 -59.687260 44.950752
RightLeg 93.797153 -0.000000 -0.000000
RightFoot -20.502613 5.527563 38.282411
RightToeBase 10.880652 -0.000000 -0.000000
2815
root -0.542438 32.437756 -6.563705 27.364967 -33.848384 -28.309919
Spine 6.675706 18.245114 1.058145
Head 3.449382 17.975893 7.096738
LeftShoulder -19.808273 22.371031 14.702022
LeftArm -17.366630 -57.514721 -63.116013
LeftForeArm -17.471453 -0.000000 109.630883
LeftHand -13.026390 -0.000000 41.784788
LeftHandThumb1 -26.253704 0.000000 33.147579
RightShoulder 3.344305 15.777166 -4.337501
RightArm 33.914478 -54.769616 71.901892
RightForeArm -29.518742 0.000000 30.461671
RightHand -14.786823 -0.000000 8.165943
RightHandThumb1 -24.326973 -0.000000 -32.862282
LeftUpLeg -24.107852 22.128104 7.929175
LeftLeg 24.940164 -0.000000 -0.000000
LeftFoot -45.027946 38.225640 -37.986346
LeftToeBase 10.595511 -0.000000 -0.000000
RightUpLeg -73.485550 -59.331557 44.030306
RightLeg 93.663092 -0.000000 -0.000000
RightFoot -20.426597 5.557447 38.243640
RightToeBase 11.048184 -0.000000 -0.000000
2816
root -0.537122 32.435160 -6.560650 27.389706 -34.030304 -28.305588
Spine 6.633495 18.224827 0.973689
Head 3.328418 18.234636 7.078251
LeftShoulder -19.843068 22.371502 14.545231
LeftArm -17.779240 -57.684357 -62.609325
LeftForeArm -17.571532 -0.000000 109.544271
LeftHand -13.051643 -0.000000 41.851274
LeftHandThumb1 -26.253704 0.000000 33.147579
RightShoulder 3.314607 15.856378 -4.306199
RightArm 33.986988 -54.785387 71.918289
RightForeArm -29.527314 -0.000000 30.703661
RightHand -14.624080 0.000000 8.519766
RightHandThumb1 -24.326973 -0.000000 -32.862282
LeftUpLeg -24.086730 22.342412 7.822671
LeftLeg 24.916673 -0.000000 -0.000000
LeftFoot -45.066678 38.152174 -38.039895
LeftToeBase 10.615896 -0.000000 -0.000000
RightUpLeg -72.550581 -58.956994 43.009912
RightLeg 93.483404 -0.000000 -0.000000
RightFoot -20.403773 5.480815 38.224354
RightToeBase 11.052757 -0.000000 -0.000000
2817
root -0.531123 32.432624 -6.558309 27.420280 -34.197225 -28.292930
Spine 6.565771 18.204980 0.875992
Head 3.215515 18.472071 7.074724
LeftShoulder -19.856897 22.387985 14.441864
LeftArm -18.141200 -57.862309 -62.204783
LeftForeArm -17.651906 -0.000000 109.447843
LeftHand -13.013888 -0.000000 41.901166
LeftHandThumb1 -26.253704 0.000000 33.147579
RightShoulder 3.269314 15.855275 -4.276613
RightArm 34.193186 -54.799811 71.798411
RightForeArm -29.479596 -0.000000 30.942273
RightHand -14.639329 -0.000000 8.329188
RightHandThumb1 -24.326973 -0.000000 -32.862282
LeftUpLeg -24.079734 22.575486 7.692461
LeftLeg 24.873214 -0.000000 -0.000000
LeftFoot -45.071322 38.085864 -38.051029
LeftToeBase 10.606605 -0.000000 -0.000000
RightUpLeg -71.542385 -58.544101 41.916643
RightLeg 93.280203 -0.000000 -0.000000
RightFoot -20.511925 5.223099 38.053673
RightToeBase 10.918344 -0.000000 -0.000000
2818
root -0.529061 32.431894 -6.554953 27.427411 -34.336577 -28.274392
Spine 6.525568 18.159462 0.783459
Head 3.110033 18.659949 7.145734
LeftShoulder -19.905941 22.413032 14.360296
LeftArm -18.395498 -58.063198 -61.913301
LeftForeArm -17.670577 -0.000000 109.289381
LeftHand -13.005131 -0.000000 42.147514
LeftHandThumb1 -26.253704 0.000000 33.147579
RightShoulder 3.225354 15.903893 -4.237827
RightArm 34.275556 -54.836025 71.778233
RightForeArm -29.621750 -0.000000 31.209670
RightHand -14.710379 0.000000 8.210655
RightHandThumb1 -24.326973 -0.000000 -32.862282
LeftUpLeg -24.036992 22.810299 7.591144
LeftLeg 24.798092 -0.000000 -0.000000
LeftFoot -44.950035 38.034937 -37.901282
LeftToeBase 10.589512 -0.000000 -0.000000
RightUpLeg -70.439758 -58.136981 40.764402
RightLeg 93.034039 -0.000000 -0.000000
RightFoot -20.660626 4.960449 38.046756
RightToeBase 10.794326 -0.000000 -0.000000
2819
root -0.528237 32.432339 -6.553983 27.438186 -34.449873 -28.264650
Spine 6.492652 18.126084 0.699688
Head 2.963383 18.817317 7.226620
LeftShoulder -19.936949 22.412555 14.327542
LeftArm -18.666561 -58.169318 -61.653354
LeftForeArm -17.774866 -0.000000 109.209529
LeftHand -13.019143 -0.000000 41.855326
LeftHandThumb1 -26.253704 0.000000 33.147579
RightShoulder 3.182054 15.920290 -4.217189
RightArm 34.266550 -54.768783 71.853812
RightForeArm -29.722768 -0.000000 31.516938
RightHand -14.757715 -0.000000 8.053378
RightHandThumb1 -24.326973 -0.000000 -32.862282
LeftUpLeg -24.002136 23.041542 7.504550
LeftLeg 24.725908 -0.000000 -0.000000
LeftFoot -44.838687 37.955315 -37.771679
LeftToeBase 10.621995 -0.000000 -0.000000
RightUpLeg -69.317913 -57.718252 39.638137
RightLeg 92.750616 -0.000000 -0.000000
RightFoot -20.845273 4.680610 38.028893
RightToeBase 10.652815 -0.000000 -0.000000
2820
root -0.527107 32.432811 -6.552793 27.437698 -34.520507 -28.228689
Spine 6.457005 18.051209 0.619352
Head 2.790912 18.969867 7.283963
LeftShoulder -19.963746 22.397464 14.333558
LeftArm -18.951598 -58.242782 -61.416933
LeftForeArm -17.825750 0.000000 109.089634
LeftHand -12.999038 -0.000000 41.960423
LeftHandThumb1 -26.253704 0.000000 33.147579
RightShoulder 3.145836 15.947344 -4.211771
RightArm 34.165436 -54.664657 72.009836
RightForeArm -29.787872 -0.000000 31.825310
RightHand -14.636443 -0.000000 8.283644
RightHandThumb1 -24.326973 -0.000000 -32.862282
LeftUpLeg -23.991943 23.272487 7.387026
LeftLeg 24.637241 -0.000000 -0.000000
LeftFoot -44.740404 37.851228 -37.684961
LeftToeBase 10.598935 -0.000000 -0.000000
RightUpLeg -68.213650 -57.312936 38.532914
RightLeg 92.462695 -0.000000 -0.000000
RightFoot -20.993880 4.434303 38.084197
RightToeBase 10.496466 -0.000000 -0.000000
2821
root -0.530549 32.436064 -6.554991 27.440646 -34.536923 -28.212791
Spine 6.430896 17.937741 0.571433
Head 2.603596 19.141449 7.318222
LeftShoulder -19.993674 22.385763 14.387943
LeftArm -19.186622 -58.345914 -61.287292
LeftForeArm -17.835103 -0.000000 108.961041
LeftHand -12.985838 -0.000000 41.936848
LeftHandThumb1 -26.253704 0.000000 33.147579
RightShoulder 3.103343 15.924852 -4.213452
RightArm 34.075595 -54.523114 72.199070
RightForeArm -29.947813 -0.000000 32.131275
RightHand -14.750176 0.000000 7.973697
RightHandThumb1 -24.326973 -0.000000 -32.862282
LeftUpLeg -23.984557 23.475067 7.328046
LeftLeg 24.560555 -0.000000 -0.000000
LeftFoot -44.565238 37.764510 -37.488203
LeftToeBase 10.610669 -0.000000 -0.000000
RightUpLeg -67.134602 -56.936756 37.521359
RightLeg 92.143963 -0.000000 -0.000000
RightFoot -21.150798 4.192978 38.064271
RightToeBase 10.455567 -0.000000 -0.000000
2822
root -0.534692 32.438698 -6.555383 27.412113 -34.518890 -28.164922
Spine 6.425436 17.850935 0.513637
Head 2.392897 19.214767 7.389573
LeftShoulder -20.002664 22.352432 14.480734
LeftArm -19.350644 -58.395640 -61.234702
LeftForeArm -17.863988 -0.000000 108.853082
LeftHand -12.925094 -0.000000 42.045446
LeftHandThumb1 -26.253704 0.000000 33.147579
RightShoulder 2.997266 15.930683 -4.211883
RightArm 34.075900 -54.491732 72.239557
RightForeArm -29.947230 -0.000000 32.406528
RightHand -14.834986 -0.000000 7.805010
RightHandThumb1 -24.326973 -0.000000 -32.862282
LeftUpLeg -23.948210 23.583585 7.279445
LeftLeg 24.447902 -0.000000 -0.000000
LeftFoot -44.395060 37.730248 -37.290336
LeftToeBase 10.603224 -0.000000 -0.000000
RightUpLeg -66.093502 -56.604466 36.564462
RightLeg 91.817482 -0.000000 -0.000000
RightFoot -21.245017 3.953026 38.029453
RightToeBase 10.453533 -0.000000 -0.000000
